<svg width="48" height="48" viewBox="0 0 48 48" fill="none" xmlns="http://www.w3.org/2000/svg">
<path d="M12.5 18C12.5 16.6193 13.6193 15.5 15 15.5H19C20.3807 15.5 21.5 16.6193 21.5 18V24.5H12.5V18Z" stroke="#FF498B" stroke-width="3"/>
<path d="M26.5 18C26.5 16.6193 27.6193 15.5 29 15.5H33C34.3807 15.5 35.5 16.6193 35.5 18V24.5H26.5V18Z" stroke="#FF498B" stroke-width="3"/>
<path d="M7.5 10C7.5 5.30558 11.3056 1.5 16 1.5H32C36.6944 1.5 40.5 5.30558 40.5 10V24.5H7.5V10Z" stroke="#152C5B" stroke-width="3"/>
<mask id="path-4-inside-1" fill="white">
<path d="M0 27C0 24.7909 1.79086 23 4 23H44C46.2091 23 48 24.7909 48 27V35C48 36.1046 47.1046 37 46 37H2C0.895431 37 0 36.1046 0 35V27Z"/>
</mask>
<path d="M0 27C0 24.7909 1.79086 23 4 23H44C46.2091 23 48 24.7909 48 27V35C48 36.1046 47.1046 37 46 37H2C0.895431 37 0 36.1046 0 35V27Z" stroke="#152C5B" stroke-width="6" mask="url(#path-4-inside-1)"/>
<path d="M5 36V45" stroke="#152C5B" stroke-width="3" stroke-linecap="round"/>
<path d="M43 36V45" stroke="#152C5B" stroke-width="3" stroke-linecap="round"/>
<path d="M5 41H42" stroke="#152C5B" stroke-width="3" stroke-linecap="round"/>
</svg>
