<svg width="48" height="48" viewBox="0 0 48 48" fill="none" xmlns="http://www.w3.org/2000/svg">
<path d="M3.63695 21.528C3.99057 20.5435 4.91975 19.8832 5.96577 19.8732L41.9735 19.5275C43.0469 19.5172 44.007 20.1933 44.3592 21.2074L45.7385 25.18C46.3025 26.8043 45.0963 28.5 43.3768 28.5H4.687C2.95624 28.5 1.7491 26.7837 2.33418 25.1549L3.63695 21.528Z" stroke="#152C5B" stroke-width="3"/>
<mask id="path-2-inside-1" fill="white">
<path d="M11 27C11.5523 27 12 27.4477 12 28L12 42C12 44.2091 10.2091 46 8 46C5.79086 46 4 44.2091 4 42L4 28C4 27.4477 4.44772 27 5 27L11 27Z"/>
</mask>
<path d="M11 27C11.5523 27 12 27.4477 12 28L12 42C12 44.2091 10.2091 46 8 46C5.79086 46 4 44.2091 4 42L4 28C4 27.4477 4.44772 27 5 27L11 27Z" stroke="#152C5B" stroke-width="6" mask="url(#path-2-inside-1)"/>
<mask id="path-3-inside-2" fill="white">
<path d="M43 27C43.5523 27 44 27.4477 44 28L44 42C44 44.2091 42.2091 46 40 46C37.7909 46 36 44.2091 36 42L36 28C36 27.4477 36.4477 27 37 27L43 27Z"/>
</mask>
<path d="M43 27C43.5523 27 44 27.4477 44 28L44 42C44 44.2091 42.2091 46 40 46C37.7909 46 36 44.2091 36 42L36 28C36 27.4477 36.4477 27 37 27L43 27Z" stroke="#152C5B" stroke-width="6" mask="url(#path-3-inside-2)"/>
<path d="M24 13V19" stroke="#152C5B" stroke-width="3" stroke-linecap="round"/>
<path d="M35 13V19" stroke="#152C5B" stroke-width="3" stroke-linecap="round"/>
<path d="M13 13V19" stroke="#152C5B" stroke-width="3" stroke-linecap="round"/>
<mask id="path-7-inside-3" fill="white">
<path d="M27 4C27.5523 4 28 4.44772 28 5L28 10C28 12.2091 26.2091 14 24 14C21.7909 14 20 12.2091 20 10L20 5C20 4.44772 20.4477 4 21 4L27 4Z"/>
</mask>
<path d="M27 4C27.5523 4 28 4.44772 28 5L28 10C28 12.2091 26.2091 14 24 14C21.7909 14 20 12.2091 20 10L20 5C20 4.44772 20.4477 4 21 4L27 4Z" stroke="#FF498B" stroke-width="6" mask="url(#path-7-inside-3)"/>
<mask id="path-8-inside-4" fill="white">
<path d="M38 4C38.5523 4 39 4.44772 39 5L39 10C39 12.2091 37.2091 14 35 14C32.7909 14 31 12.2091 31 10L31 5C31 4.44772 31.4477 4 32 4L38 4Z"/>
</mask>
<path d="M38 4C38.5523 4 39 4.44772 39 5L39 10C39 12.2091 37.2091 14 35 14C32.7909 14 31 12.2091 31 10L31 5C31 4.44772 31.4477 4 32 4L38 4Z" stroke="#FF498B" stroke-width="6" mask="url(#path-8-inside-4)"/>
<mask id="path-9-inside-5" fill="white">
<path d="M16 4C16.5523 4 17 4.44772 17 5L17 10C17 12.2091 15.2091 14 13 14C10.7909 14 9 12.2091 9 10L9 5C9 4.44772 9.44772 4 10 4L16 4Z"/>
</mask>
<path d="M16 4C16.5523 4 17 4.44772 17 5L17 10C17 12.2091 15.2091 14 13 14C10.7909 14 9 12.2091 9 10L9 5C9 4.44772 9.44772 4 10 4L16 4Z" stroke="#FF498B" stroke-width="6" mask="url(#path-9-inside-5)"/>
</svg>
