<svg width="48" height="48" viewBox="0 0 48 48" fill="none" xmlns="http://www.w3.org/2000/svg">
<path d="M28.5 41C28.5 42.004 27.5687 43.3788 24.9723 44.5905C22.4976 45.7453 18.9735 46.5 15 46.5C11.0265 46.5 7.50237 45.7453 5.02773 44.5905C2.43129 43.3788 1.5 42.004 1.5 41C1.5 39.996 2.43129 38.6212 5.02773 37.4095C7.50237 36.2547 11.0265 35.5 15 35.5C18.9735 35.5 22.4976 36.2547 24.9723 37.4095C27.5687 38.6212 28.5 39.996 28.5 41Z" stroke="#152C5B" stroke-width="3"/>
<path d="M28.5 14.3936C28.5 18.0851 26.9007 24.7684 24.2436 30.5515C22.9215 33.4291 21.382 35.9832 19.7305 37.7934C18.0569 39.6279 16.4564 40.5 15 40.5C13.5436 40.5 11.9431 39.6279 10.2695 37.7934C8.61798 35.9832 7.07852 33.4291 5.75641 30.5515C3.09929 24.7684 1.5 18.0851 1.5 14.3936C1.5 7.33039 7.48521 1.5 15 1.5C22.5148 1.5 28.5 7.33039 28.5 14.3936Z" fill="white" stroke="#152C5B" stroke-width="3"/>
<circle cx="15" cy="13" r="4.5" stroke="#FF498B" stroke-width="3"/>
</svg>
