<svg width="48" height="48" viewBox="0 0 48 48" fill="none" xmlns="http://www.w3.org/2000/svg">
<mask id="path-1-inside-1" fill="white">
<path fill-rule="evenodd" clip-rule="evenodd" d="M16.8701 6C16.0092 6 15.245 6.55086 14.9727 7.36754L13.7143 11.1429H8C3.58172 11.1429 0 14.7246 0 19.1429V34C0 38.4183 3.58172 42 8 42H40C44.4183 42 48 38.4183 48 34V19.1429C48 14.7246 44.4183 11.1429 40 11.1429H34.2857L33.0273 7.36754C32.7551 6.55086 31.9908 6 31.1299 6H16.8701Z"/>
</mask>
<path d="M14.9727 7.36754L17.8188 8.31623L17.8188 8.31622L14.9727 7.36754ZM13.7143 11.1429V14.1429H15.8766L16.5603 12.0915L13.7143 11.1429ZM34.2857 11.1429L31.4397 12.0915L32.1234 14.1429H34.2857V11.1429ZM33.0273 7.36754L35.8733 6.41886L33.0273 7.36754ZM17.8188 8.31622C17.6827 8.72457 17.3005 9 16.8701 9V3C14.7179 3 12.8072 4.37715 12.1267 6.41886L17.8188 8.31622ZM16.5603 12.0915L17.8188 8.31623L12.1267 6.41886L10.8682 10.1942L16.5603 12.0915ZM8 14.1429H13.7143V8.14286H8V14.1429ZM3 19.1429C3 16.3814 5.23858 14.1429 8 14.1429V8.14286C1.92487 8.14286 -3 13.0677 -3 19.1429H3ZM3 34V19.1429H-3V34H3ZM8 39C5.23858 39 3 36.7614 3 34H-3C-3 40.0751 1.92487 45 8 45V39ZM40 39H8V45H40V39ZM45 34C45 36.7614 42.7614 39 40 39V45C46.0751 45 51 40.0751 51 34H45ZM45 19.1429V34H51V19.1429H45ZM40 14.1429C42.7614 14.1429 45 16.3814 45 19.1429H51C51 13.0677 46.0751 8.14286 40 8.14286V14.1429ZM34.2857 14.1429H40V8.14286H34.2857V14.1429ZM30.1812 8.31623L31.4397 12.0915L37.1318 10.1942L35.8733 6.41886L30.1812 8.31623ZM31.1299 9C30.6995 9 30.3173 8.72457 30.1812 8.31623L35.8733 6.41886C35.1928 4.37715 33.2821 3 31.1299 3V9ZM16.8701 9H31.1299V3H16.8701V9Z" fill="#152C5B" mask="url(#path-1-inside-1)"/>
<circle cx="24" cy="26" r="6.5" stroke="#FF498B" stroke-width="3"/>
<path d="M34 17L40 17" stroke="#152C5B" stroke-width="3" stroke-linecap="round"/>
</svg>
